<svg xmlns="http://www.w3.org/2000/svg" viewBox="0 0 40 40" width="40" height="40">
	<style>
		tspan { white-space:pre }
		.shp0 { fill: #ffffff } 
	</style>
	<path id="fa-android" class="shp0" d="M16.75 10.18C16.38 10.18 16.08 9.87 16.08 9.5C16.08 9.13 16.38 8.82 16.75 8.82C17.14 8.82 17.44 9.13 17.44 9.5C17.44 9.87 17.14 10.18 16.75 10.18ZM24.24 10.18C23.85 10.18 23.55 9.87 23.55 9.5C23.55 9.13 23.85 8.82 24.24 8.82C24.61 8.82 24.92 9.13 24.92 9.5C24.92 9.87 24.61 10.18 24.24 10.18ZM9.83 13.39C8.82 13.39 8 14.19 8 15.17L8 22.67C8 23.66 8.82 24.46 9.83 24.46C10.84 24.46 11.64 23.66 11.64 22.67L11.64 15.17C11.64 14.19 10.82 13.39 9.83 13.39ZM28.64 13.72L12.35 13.72L12.35 25.33C12.35 26.4 13.22 27.25 14.3 27.25L15.61 27.25L15.63 31.21C15.63 32.21 16.45 33.01 17.44 33.01C18.45 33.01 19.27 32.21 19.27 31.21L19.27 27.25L21.72 27.25L21.72 31.21C21.72 32.21 22.54 33.01 23.55 33.01C24.56 33.01 25.38 32.21 25.38 31.21L25.38 27.25L26.71 27.25C27.77 27.25 28.64 26.4 28.64 25.33L28.64 13.72ZM24.52 6.66L25.78 4.37C25.86 4.25 25.82 4.09 25.7 4.02C25.57 3.97 25.41 4.01 25.34 4.13L24.06 6.43C22.98 5.96 21.77 5.7 20.5 5.7C19.22 5.7 18.01 5.96 16.93 6.43L15.65 4.13C15.58 4.01 15.42 3.97 15.29 4.02C15.17 4.09 15.14 4.25 15.21 4.37L16.47 6.66C13.96 7.91 12.28 10.32 12.28 13.09L28.7 13.09C28.7 10.32 27.01 7.91 24.52 6.66ZM32.99 15.17C32.99 14.17 32.17 13.39 31.16 13.39C30.17 13.39 29.35 14.17 29.35 15.17L29.35 22.67C29.35 23.66 30.17 24.46 31.16 24.46C32.17 24.46 32.99 23.66 32.99 22.67L32.99 15.17Z" />
</svg>