<svg xmlns="http://www.w3.org/2000/svg" viewBox="0 0 40 40" width="40" height="40">
	<style>
		tspan { white-space:pre }
		.shp0 { fill: #ffffff } 
	</style>
	<path id="fa-apple" class="shp0" d="M29.99 23.52C29.11 23.26 28.31 22.65 27.61 21.7C26.92 20.75 26.57 19.67 26.57 18.49C26.57 17.39 26.91 16.39 27.55 15.5C27.91 15 28.49 14.43 29.27 13.8C28.76 13.19 28.23 12.7 27.7 12.36C26.77 11.74 25.7 11.42 24.49 11.42C23.76 11.42 22.88 11.59 21.89 11.91C20.89 12.24 20.17 12.4 19.73 12.4C19.38 12.4 18.69 12.26 17.65 11.97C16.6 11.68 15.72 11.53 14.98 11.53C13.25 11.53 11.83 12.23 10.7 13.61C9.57 15.01 9 16.8 9 19C9 21.37 9.75 23.78 11.22 26.26C12.71 28.74 14.2 29.99 15.75 29.99C16.25 29.99 16.91 29.84 17.74 29.5C18.56 29.19 19.28 29.03 19.88 29.03C20.5 29.03 21.27 29.17 22.16 29.49C23.06 29.79 23.76 29.95 24.27 29.95C25.55 29.95 26.84 29.01 28.14 27.12C29.02 25.87 29.62 24.66 29.99 23.52ZM24.33 6.6C24.33 6.5 24.31 6.41 24.31 6.31C24.3 6.23 24.27 6.13 24.24 6C22.49 6.39 21.22 7.09 20.47 8.13C19.72 9.17 19.32 10.41 19.29 11.84C20 11.78 20.51 11.69 20.86 11.59C21.4 11.42 21.95 11.07 22.49 10.55C23.12 9.95 23.59 9.28 23.89 8.56C24.18 7.86 24.33 7.19 24.33 6.6Z" />
</svg>