<svg xmlns="http://www.w3.org/2000/svg" viewBox="0 0 40 40" width="40" height="40">
	<style>
		tspan { white-space:pre }
		.shp0 { fill: #ffffff } 
	</style>
	<path id="fa-check" class="shp0" d="M32 12.12C32 11.79 31.87 11.45 31.64 11.21L29.88 9.38C29.65 9.13 29.33 9 29 9C28.68 9 28.36 9.13 28.13 9.38L19.66 18.23L15.87 14.25C15.63 14.01 15.31 13.87 14.99 13.87C14.67 13.87 14.34 14.01 14.11 14.25L12.36 16.08C12.12 16.33 12 16.66 12 17C12 17.34 12.12 17.67 12.36 17.92L17.03 22.79L18.78 24.62C19.02 24.87 19.34 25 19.66 25C19.98 25 20.31 24.87 20.54 24.62L22.29 22.79L31.64 13.04C31.87 12.8 32 12.46 32 12.12Z" />
</svg>