<svg xmlns="http://www.w3.org/2000/svg" viewBox="0 0 40 28" width="30" height="21">
	<style>
		tspan { white-space:pre }
		.shp0 { fill: #ffffff } 
	</style>
	<path id="fa-dribbble copy" class="shp0" d="M23.34 21.75C22.31 22.2 21.19 22.46 20 22.46C17.93 22.46 16.04 21.69 14.56 20.42C14.56 20.42 14.68 20.5 14.75 20.57C16.39 16.82 21.46 14.96 21.46 14.96C21.47 14.96 21.5 14.95 21.51 14.95C22.71 18.23 23.21 20.96 23.34 21.75ZM20.93 13.46C20.82 13.5 20.71 13.53 20.59 13.57C20.59 13.57 15.98 15.13 13.65 19.49L13.65 19.49C12.29 17.9 11.46 15.8 11.46 13.5C11.46 13.41 11.46 13.31 11.47 13.21C11.61 13.21 15.83 13.32 20.24 11.94C20.48 12.45 20.72 12.95 20.93 13.46ZM19.53 10.56C15.43 11.7 11.86 11.66 11.64 11.66C12.2 8.88 13.97 6.57 16.36 5.4C16.47 5.56 18.05 7.8 19.53 10.56ZM28.44 14.92C28.05 17.42 26.7 19.58 24.78 20.93C24.69 20.4 24.23 17.76 23.11 14.53C25.88 14.07 28.26 14.87 28.44 14.92ZM17.96 4.8C17.94 4.8 17.93 4.81 17.93 4.81C17.94 4.8 17.94 4.8 17.96 4.8ZM25.64 6.78C25.61 6.82 24.4 8.76 21.19 10.02C19.73 7.2 18.11 4.97 17.98 4.8C18.63 4.63 19.31 4.54 20 4.54C22.16 4.54 24.14 5.38 25.64 6.78ZM28.55 13.41C28.44 13.39 25.54 12.72 22.59 13.12C22.53 12.97 22.48 12.8 22.41 12.65C22.23 12.22 22.03 11.78 21.84 11.36C25.21 9.91 26.58 7.83 26.6 7.8C27.8 9.33 28.52 11.29 28.55 13.41ZM30 13.5C30 7.71 25.52 3.01 20 3.01C14.48 3.01 10 7.71 10 13.5C10 19.29 14.48 24 20 24C25.52 24 30 19.29 30 13.5Z" />
</svg>