<svg xmlns="http://www.w3.org/2000/svg" viewBox="0 0 37 29" width="37" height="29">
	<style>
		tspan { white-space:pre }
		.shp0 { fill: #ffffff } 
	</style>
	<path id="fa-flickr" class="shp0" d="M25.69 4.01L11.31 4.01C8.93 4.01 7 5.69 7 7.75L7 20.25C7 22.32 8.93 24 11.31 24L25.69 24C28.07 24 30 22.32 30 20.25L30 7.75C30 5.69 28.07 4.01 25.69 4.01ZM17.45 14C17.45 15.52 16.03 16.76 14.28 16.76C12.53 16.76 11.1 15.52 11.1 14C11.1 12.48 12.53 11.24 14.28 11.24C16.03 11.24 17.45 12.48 17.45 14ZM25.9 14C25.9 15.52 24.48 16.76 22.73 16.76C20.97 16.76 19.55 15.52 19.55 14C19.55 12.48 20.97 11.24 22.73 11.24C24.48 11.24 25.9 12.48 25.9 14Z" />
</svg>