<svg xmlns="http://www.w3.org/2000/svg" viewBox="0 0 42 33" width="42" height="33">
	<style>
		tspan { white-space:pre }
		.shp0 { fill: #ffffff } 
	</style>
	<path id="fa-twitter" class="shp0" d="M33 7.38C32.16 7.77 31.24 8.05 30.29 8.16C31.27 7.53 32.01 6.55 32.36 5.38C31.46 5.96 30.43 6.38 29.37 6.6C28.51 5.61 27.28 5 25.92 5C23.31 5 21.21 7.27 21.21 10.05C21.21 10.44 21.25 10.83 21.32 11.2C17.41 10.99 13.92 8.99 11.6 5.92C11.19 6.67 10.96 7.53 10.96 8.47C10.96 10.22 11.79 11.77 13.06 12.67C12.29 12.64 11.56 12.41 10.93 12.03C10.93 12.05 10.93 12.08 10.93 12.1C10.93 14.55 12.55 16.58 14.71 17.05C14.32 17.16 13.89 17.22 13.47 17.22C13.16 17.22 12.87 17.19 12.58 17.14C13.18 19.14 14.92 20.59 16.99 20.64C15.37 22 13.34 22.8 11.13 22.8C10.74 22.8 10.37 22.78 9.99 22.73C12.08 24.17 14.56 25 17.24 25C25.91 25 30.65 17.31 30.65 10.64C30.65 10.42 30.65 10.2 30.64 9.99C31.56 9.27 32.36 8.38 33 7.38Z" />
</svg>